<svg aria-hidden="true" style="position: absolute; width: 0; height: 0; overflow: hidden;" version="1.1" xmlns="http://www.w3.org/2000/svg" xmlns:xlink="http://www.w3.org/1999/xlink">
<defs>
<symbol id="facebook" viewBox="0 0 32 32">
<path d="M19 6h5v-6h-5c-3.86 0-7 3.14-7 7v3h-4v6h4v16h6v-16h5l1-6h-6v-3c0-0.542 0.458-1 1-1z"></path>
</symbol>
<symbol id="github" viewBox="0 0 32 32">
<path d="M16 0.395c-8.836 0-16 7.163-16 16 0 7.069 4.585 13.067 10.942 15.182 0.8 0.148 1.094-0.347 1.094-0.77 0-0.381-0.015-1.642-0.022-2.979-4.452 0.968-5.391-1.888-5.391-1.888-0.728-1.849-1.776-2.341-1.776-2.341-1.452-0.993 0.11-0.973 0.11-0.973 1.606 0.113 2.452 1.649 2.452 1.649 1.427 2.446 3.743 1.739 4.656 1.33 0.143-1.034 0.558-1.74 1.016-2.14-3.554-0.404-7.29-1.777-7.29-7.907 0-1.747 0.625-3.174 1.649-4.295-0.166-0.403-0.714-2.030 0.155-4.234 0 0 1.344-0.43 4.401 1.64 1.276-0.355 2.645-0.532 4.005-0.539 1.359 0.006 2.729 0.184 4.008 0.539 3.054-2.070 4.395-1.64 4.395-1.64 0.871 2.204 0.323 3.831 0.157 4.234 1.026 1.12 1.647 2.548 1.647 4.295 0 6.145-3.743 7.498-7.306 7.895 0.574 0.497 1.085 1.47 1.085 2.963 0 2.141-0.019 3.864-0.019 4.391 0 0.426 0.288 0.925 1.099 0.768 6.354-2.118 10.933-8.113 10.933-15.18 0-8.837-7.164-16-16-16z"></path>
</symbol>
<symbol id="instagram" viewBox="0 0 32 32">
<path d="M16 2.881c4.275 0 4.781 0.019 6.462 0.094 1.563 0.069 2.406 0.331 2.969 0.55 0.744 0.288 1.281 0.638 1.837 1.194 0.563 0.563 0.906 1.094 1.2 1.838 0.219 0.563 0.481 1.412 0.55 2.969 0.075 1.688 0.094 2.194 0.094 6.463s-0.019 4.781-0.094 6.463c-0.069 1.563-0.331 2.406-0.55 2.969-0.288 0.744-0.637 1.281-1.194 1.837-0.563 0.563-1.094 0.906-1.837 1.2-0.563 0.219-1.413 0.481-2.969 0.55-1.688 0.075-2.194 0.094-6.463 0.094s-4.781-0.019-6.463-0.094c-1.563-0.069-2.406-0.331-2.969-0.55-0.744-0.288-1.281-0.637-1.838-1.194-0.563-0.563-0.906-1.094-1.2-1.837-0.219-0.563-0.481-1.413-0.55-2.969-0.075-1.688-0.094-2.194-0.094-6.463s0.019-4.781 0.094-6.463c0.069-1.563 0.331-2.406 0.55-2.969 0.288-0.744 0.638-1.281 1.194-1.838 0.563-0.563 1.094-0.906 1.838-1.2 0.563-0.219 1.412-0.481 2.969-0.55 1.681-0.075 2.188-0.094 6.463-0.094zM16 0c-4.344 0-4.887 0.019-6.594 0.094-1.7 0.075-2.869 0.35-3.881 0.744-1.056 0.412-1.95 0.956-2.837 1.85-0.894 0.888-1.438 1.781-1.85 2.831-0.394 1.019-0.669 2.181-0.744 3.881-0.075 1.713-0.094 2.256-0.094 6.6s0.019 4.887 0.094 6.594c0.075 1.7 0.35 2.869 0.744 3.881 0.413 1.056 0.956 1.95 1.85 2.837 0.887 0.887 1.781 1.438 2.831 1.844 1.019 0.394 2.181 0.669 3.881 0.744 1.706 0.075 2.25 0.094 6.594 0.094s4.888-0.019 6.594-0.094c1.7-0.075 2.869-0.35 3.881-0.744 1.050-0.406 1.944-0.956 2.831-1.844s1.438-1.781 1.844-2.831c0.394-1.019 0.669-2.181 0.744-3.881 0.075-1.706 0.094-2.25 0.094-6.594s-0.019-4.887-0.094-6.594c-0.075-1.7-0.35-2.869-0.744-3.881-0.394-1.063-0.938-1.956-1.831-2.844-0.887-0.887-1.781-1.438-2.831-1.844-1.019-0.394-2.181-0.669-3.881-0.744-1.712-0.081-2.256-0.1-6.6-0.1v0z"></path>
<path d="M16 7.781c-4.537 0-8.219 3.681-8.219 8.219s3.681 8.219 8.219 8.219 8.219-3.681 8.219-8.219c0-4.537-3.681-8.219-8.219-8.219zM16 21.331c-2.944 0-5.331-2.387-5.331-5.331s2.387-5.331 5.331-5.331c2.944 0 5.331 2.387 5.331 5.331s-2.387 5.331-5.331 5.331z"></path>
<path d="M26.462 7.456c0 1.060-0.859 1.919-1.919 1.919s-1.919-0.859-1.919-1.919c0-1.060 0.859-1.919 1.919-1.919s1.919 0.859 1.919 1.919z"></path>
</symbol>
<symbol id="linkedin" viewBox="0 0 32 32">
<path d="M29 0h-26c-1.65 0-3 1.35-3 3v26c0 1.65 1.35 3 3 3h26c1.65 0 3-1.35 3-3v-26c0-1.65-1.35-3-3-3zM12 26h-4v-14h4v14zM10 10c-1.106 0-2-0.894-2-2s0.894-2 2-2c1.106 0 2 0.894 2 2s-0.894 2-2 2zM26 26h-4v-8c0-1.106-0.894-2-2-2s-2 0.894-2 2v8h-4v-14h4v2.481c0.825-1.131 2.087-2.481 3.5-2.481 2.488 0 4.5 2.238 4.5 5v9z"></path>
</symbol>
<symbol id="email" viewBox="0 0 43 32">
<path d="M38.667 0h-34.667c-2.206 0-4 1.794-4 4v24c0 2.206 1.794 4 4 4h34.667c2.206 0 4-1.794 4-4v-24c0-2.206-1.794-4-4-4zM38.667 2.667c0.181 0 0.353 0.038 0.511 0.103l-17.844 15.466-17.844-15.466c0.158-0.066 0.33-0.103 0.511-0.103h34.667zM38.667 29.333h-34.667c-0.736 0-1.333-0.598-1.333-1.333v-22.413l17.793 15.421c0.251 0.217 0.563 0.326 0.874 0.326s0.622-0.108 0.874-0.326l17.793-15.421v22.413c0 0.736-0.598 1.333-1.333 1.333z"></path>
</symbol>
<symbol id="close" viewBox="0 0 32 32">
<path d="M32 3.223l-3.223-3.223-12.777 12.777-12.777-12.777-3.223 3.223 12.777 12.777-12.777 12.777 3.223 3.223 12.777-12.777 12.777 12.777 3.223-3.223-12.777-12.777 12.777-12.777z"></path>
</symbol>
<symbol id="telegram" viewBox="0 0 32 32">
<path fill="#fff" style="fill: var(--color1, #fff)" d="M32 0l-32 18 10.227 3.787 15.773-14.787-11.997 16.187 0.009 0.003-0.012-0.003v8.813l5.735-6.691 7.267 2.691 4.999-28z"></path>
</symbol>
<symbol id="emailmodal" viewBox="0 0 32 32">
<path d="M26.667 5.333h-21.333c-1.467 0-2.652 1.2-2.652 2.667l-0.014 16c0 1.467 1.2 2.667 2.667 2.667h21.333c1.467 0 2.667-1.2 2.667-2.667v-16c0-1.467-1.2-2.667-2.667-2.667zM26.133 11.001l-9.426 5.892c-0.201 0.126-0.446 0.2-0.708 0.2s-0.506-0.075-0.713-0.204l0.006 0.003-9.426-5.892c-0.336-0.201-0.557-0.562-0.557-0.975 0-0.625 0.507-1.132 1.132-1.132 0.233 0 0.449 0.070 0.629 0.19l-0.004-0.003 8.933 5.586 8.933-5.588c0.176-0.118 0.392-0.188 0.624-0.188 0.625 0 1.132 0.507 1.132 1.132 0 0.413-0.221 0.775-0.552 0.972l-0.005 0.003z"></path>
</symbol>
<symbol id="phonemodal" viewBox="0 0 32 32">
<path d="M24.882 19.774l-3.268-0.373c-0.090-0.011-0.194-0.018-0.3-0.018-0.707 0-1.347 0.287-1.81 0.75l-2.368 2.368c-3.669-1.894-6.585-4.81-8.427-8.372l-0.051-0.108 2.382-2.377c0.463-0.463 0.75-1.103 0.75-1.81 0-0.106-0.006-0.21-0.019-0.312l0.001 0.012-0.373-3.243c-0.155-1.287-1.24-2.276-2.557-2.276-0.001 0-0.002 0-0.003 0h-2.226c-1.454 0-2.663 1.209-2.574 2.661 0.683 10.987 9.47 19.762 20.444 20.444 1.452 0.089 2.663-1.12 2.663-2.574v-2.226c0-0.004 0-0.008 0-0.012 0-1.308-0.985-2.386-2.253-2.532l-0.012-0.001z"></path>
</symbol>
<symbol id="namemodal" viewBox="0 0 32 32">
<path d="M16 16c2.946 0 5.333-2.388 5.333-5.333s-2.388-5.333-5.333-5.333v0c-2.946 0-5.333 2.388-5.333 5.333s2.388 5.333 5.333 5.333v0zM16 18.667c-3.561 0-10.667 1.787-10.667 5.333v1.333c0 0.732 0.599 1.333 1.333 1.333h18.667c0.732 0 1.333-0.601 1.333-1.333v-1.333c0-3.547-7.108-5.333-10.667-5.333z"></path>
</symbol>
<symbol id="iconclose" viewBox="0 0 32 32">
<path d="M32 3.223l-3.223-3.223-12.777 12.777-12.777-12.777-3.223 3.223 12.777 12.777-12.777 12.777 3.223 3.223 12.777-12.777 12.777 12.777 3.223-3.223-12.777-12.777 12.777-12.777z"></path>
</symbol>
<symbol id="checkborder" viewBox="0 0 34 32">
<path d="M14.2222 1.66667V13.3333H1.77778V1.66667H14.2222ZM14.2222 0H1.77778C0.8 0 0 0.75 0 1.66667V13.3333C0 14.25 0.8 15 1.77778 15H14.2222C15.2 15 16 14.25 16 13.3333V1.66667C16 0.75 15.2 0 14.2222 0Z" fill="#212121"/>
</symbol>
<symbol id="check" viewBox="0 0 34 32">
<path d="M3.95703 7.75166L3.88825 7.68604L3.81923 7.75141L2.93123 8.59258L2.85486 8.66492L2.93097 8.73753L6.42671 12.0724L6.49574 12.1382L6.56476 12.0724L14.069 4.91352L14.1449 4.84116L14.069 4.76881L13.1873 3.92764L13.1183 3.86183L13.0493 3.92761L6.49577 10.1735L3.95703 7.75166Z" fill="white" stroke="white" stroke-width="0.2"/>
</symbol>
<symbol id="key" viewBox="0 0 34 32">
<path d="M22 0c-5.523 0-10 4.477-10 10 0 0.626 0.058 1.238 0.168 1.832l-12.168 12.168v6c0 1.105 0.895 2 2 2h2v-2h4v-4h4v-4h4l2.595-2.595c1.063 0.385 2.209 0.595 3.405 0.595 5.523 0 10-4.477 10-10s-4.477-10-10-10zM24.996 10.004c-1.657 0-3-1.343-3-3s1.343-3 3-3 3 1.343 3 3-1.343 3-3 3z"></path>
</symbol>
<symbol id="key2" viewBox="0 0 34 32">
<path d="M31.317 9.82l-3.16-3.159c-0.775-0.775-2.043-2.043-2.818-2.818l-3.16-3.159c-0.775-0.775-2.155-0.911-3.067-0.304l-8.639 5.759c-0.912 0.608-1.257 1.907-0.767 2.887l2.203 4.405c0.067 0.135 0.145 0.278 0.231 0.427l-11.142 11.142-1 7h6v-2h4v-4h4v-4h4v-2.225c0.2 0.119 0.392 0.226 0.569 0.314l4.405 2.203c0.98 0.49 2.279 0.145 2.887-0.767l5.759-8.639c0.608-0.912 0.471-2.292-0.304-3.066zM4.707 26.707l-1.414-1.414 9.737-9.737 1.414 1.414-9.737 9.737zM28.657 13.243l-1.414 1.414c-0.389 0.389-1.025 0.389-1.414 0l-8.485-8.485c-0.389-0.389-0.389-1.025 0-1.414l1.414-1.414c0.389-0.389 1.025-0.389 1.414 0l8.485 8.485c0.389 0.389 0.389 1.025 0 1.414z"></path>
</symbol>
<symbol id="surname" viewBox="0 0 34 32">
<path d="M6 0v32h24v-32h-24zM18 8.010c2.203 0 3.99 1.786 3.99 3.99s-1.786 3.99-3.99 3.99-3.99-1.786-3.99-3.99 1.786-3.99 3.99-3.99v0zM24 24h-12v-2c0-2.209 1.791-4 4-4v0h4c2.209 0 4 1.791 4 4v2z"></path>
<path d="M2 2h3v6h-3v-6z"></path>
<path d="M2 10h3v6h-3v-6z"></path>
<path d="M2 18h3v6h-3v-6z"></path>
<path d="M2 26h3v6h-3v-6z"></path>
</symbol>
<symbol id="burger" viewBox="0 0 24 24">
<path d="M21 6H3V5h18v1zm0 5H3v1h18v-1zm0 6H3v1h18v-1z"></path>
</symbol>
<symbol id="premium" viewBox="0 0 64 18">
<path d="M40.0566 6.34524V7.03668C40.0566 10.4915 38.5255 12.5118 35.1742 12.5118H34.6638V18.5583H31.9263V1.42285H35.414C38.6078 1.42285 40.0566 2.7728 40.0566 6.34524ZM37.1779 6.59218C37.1779 4.09924 36.7287 3.50658 35.1765 3.50658H34.6662V10.4727H35.1365C36.6064 10.4727 37.1803 9.40968 37.1803 7.10253L37.1779 6.59218Z"></path>
<path d="M46.5336 5.8345L46.3901 9.08238C45.2259 8.83779 44.264 9.02123 43.836 9.77382V18.5579H41.1196V6.0391H43.2857L43.5303 8.75312H43.6337C43.9183 6.77288 44.8379 5.771 46.0232 5.771C46.1949 5.7757 46.3666 5.79687 46.5336 5.8345Z"></path>
<path d="M49.6567 13.2456V13.8782C49.6567 16.0842 49.779 16.8415 50.7198 16.8415C51.6182 16.8415 51.8228 16.1501 51.8439 14.7178L54.2734 14.8613C54.4568 17.5565 53.0481 18.763 50.6586 18.763C47.7588 18.763 46.9004 16.8627 46.9004 13.4126V11.223C46.9004 7.58707 47.8599 5.80908 50.7409 5.80908C53.6407 5.80908 54.3769 7.32131 54.3769 11.0984V13.2456H49.6567ZM49.6567 10.6703V11.5687H51.7193V10.675C51.7193 8.37258 51.5547 7.71172 50.6821 7.71172C49.8096 7.71172 49.6567 8.38669 49.6567 10.675V10.6703Z"></path>
<path d="M68.4103 9.09902V18.5557H65.5928V9.30834C65.5928 8.28764 65.327 7.77729 64.7132 7.77729C64.2216 7.77729 63.7724 8.06186 63.4667 8.59338C63.4832 8.76271 63.4902 8.93439 63.4879 9.10373V18.5605H60.668V9.30834C60.668 8.28764 60.4022 7.77729 59.7884 7.77729C59.2969 7.77729 58.8665 8.06186 58.5631 8.57456V18.5628H55.7456V6.03929H57.9728L58.2221 7.63383H58.2621C58.8947 6.42969 59.9178 5.77588 61.1219 5.77588C62.3072 5.77588 62.9799 6.36854 63.288 7.43157C63.9418 6.34973 64.9225 5.77588 66.0443 5.77588C67.7564 5.77588 68.4103 7.00119 68.4103 9.09902Z"></path>
<path d="M69.8191 2.8338C69.8191 1.4862 70.3106 1.09814 71.3501 1.09814C72.4132 1.09814 72.8812 1.54734 72.8812 2.8338C72.8812 4.22373 72.4108 4.57181 71.3501 4.57181C70.3106 4.56945 69.8191 4.22138 69.8191 2.8338ZM69.9837 6.03935H72.6789V18.5629H69.9837V6.03935Z"></path>
<path d="M81.891 6.03955V18.5631H79.6849L79.4403 17.032H79.3792C78.7466 18.2573 77.827 18.7677 76.684 18.7677C75.0095 18.7677 74.2522 17.7046 74.2522 15.3975V6.0419H77.0697V15.2352C77.0697 16.3382 77.3002 16.7874 77.867 16.7874C78.3844 16.7663 78.8477 16.4582 79.0688 15.9902V6.0419H81.891V6.03955Z"></path>
<path d="M96.1901 9.09893V18.5557H93.3726V9.30825C93.3726 8.28755 93.1068 7.7772 92.493 7.7772C92.0015 7.7772 91.5523 8.06177 91.2465 8.59329C91.263 8.76027 91.2701 8.9296 91.2677 9.09893V18.5557H88.4502V9.30825C88.4502 8.28755 88.1845 7.7772 87.5706 7.7772C87.0791 7.7772 86.6487 8.06177 86.3453 8.57447V18.5627H83.5278V6.0392H85.7527L85.9973 7.63139H86.0372C86.6699 6.42725 87.6929 5.77344 88.8971 5.77344C90.0824 5.77344 90.755 6.3661 91.0631 7.42913C91.7169 6.34729 92.6976 5.77344 93.8194 5.77344C95.541 5.77579 96.1901 7.0011 96.1901 9.09893Z"></path>
<path d="M40.0566 6.34524V7.03668C40.0566 10.4915 38.5255 12.5118 35.1742 12.5118H34.6638V18.5583H31.9263V1.42285H35.414C38.6078 1.42285 40.0566 2.7728 40.0566 6.34524ZM37.1779 6.59218C37.1779 4.09924 36.7287 3.50658 35.1765 3.50658H34.6662V10.4727H35.1365C36.6064 10.4727 37.1803 9.40968 37.1803 7.10253L37.1779 6.59218Z"></path>
</symbol>
<symbol id="youtube-logo" viewBox="0 0 28 20">
<path d="M27.9704 3.12324C27.6411 1.89323 26.6745 0.926623 25.4445 0.597366C23.2173 2.24288e-07 14.2827 0 14.2827 0C14.2827 0 5.34807 2.24288e-07 3.12088 0.597366C1.89323 0.926623 0.924271 1.89323 0.595014 3.12324C-2.8036e-07 5.35042 0 10 0 10C0 10 -1.57002e-06 14.6496 0.597364 16.8768C0.926621 18.1068 1.89323 19.0734 3.12324 19.4026C5.35042 20 14.285 20 14.285 20C14.285 20 23.2197 20 25.4468 19.4026C26.6769 19.0734 27.6435 18.1068 27.9727 16.8768C28.5701 14.6496 28.5701 10 28.5701 10C28.5701 10 28.5677 5.35042 27.9704 3.12324Z" fill="red"></path>
<path d="M11.4275 14.2854L18.8475 10.0004L11.4275 5.71533V14.2854Z" fill="white"></path>
</symbol>
<symbol id="home" viewBox="0 0 24 24">
<path d="M4 21V10.08l8-6.96 8 6.96V21h-6v-6h-4v6H4z"></path>
</symbol>
<symbol id="shorts" viewBox="0 0 24 24">
<path d="M10 14.65v-5.3L15 12l-5 2.65zm7.77-4.33-1.2-.5L18 9.06c1.84-.96 2.53-3.23 1.56-5.06s-3.24-2.53-5.07-1.56L6 6.94c-1.29.68-2.07 2.04-2 3.49.07 1.42.93 2.67 2.22 3.25.03.01 1.2.5 1.2.5L6 14.93c-1.83.97-2.53 3.24-1.56 5.07.97 1.83 3.24 2.53 5.07 1.56l8.5-4.5c1.29-.68 2.06-2.04 1.99-3.49-.07-1.42-.94-2.68-2.23-3.25zm-.23 5.86-8.5 4.5c-1.34.71-3.01.2-3.72-1.14-.71-1.34-.2-3.01 1.14-3.72l2.04-1.08v-1.21l-.69-.28-1.11-.46c-.99-.41-1.65-1.35-1.7-2.41-.05-1.06.52-2.06 1.46-2.56l8.5-4.5c1.34-.71 3.01-.2 3.72 1.14.71 1.34.2 3.01-1.14 3.72L15.5 9.26v1.21l1.8.74c.99.41 1.65 1.35 1.7 2.41.05 1.06-.52 2.06-1.46 2.56z"></path>
</symbol>
<symbol id="subs" viewBox="0 0 24 24">
<path d="M10 18v-6l5 3-5 3zm7-15H7v1h10V3zm3 3H4v1h16V6zm2 3H2v12h20V9zM3 10h18v10H3V10z"></path>
</symbol>
<symbol id="music" viewBox="0 0 24 24">
<path d="M10 9.35 15 12l-5 2.65zM12 7a5 5 0 105 5 5 5 0 00-5-5m0-1a6 6 0 11-6 6 6 6 0 016-6zm0-3a9 9 0 109 9 9 9 0 00-9-9m0-1A10 10 0 112 12 10 10 0 0112 2z"></path>
</symbol>
<symbol id="you-channel" viewBox="0 0 24 24">
<path d="M3,3v18h18V3H3z M4.99,20c0.39-2.62,2.38-5.1,7.01-5.1s6.62,2.48,7.01,5.1H4.99z M9,10c0-1.65,1.35-3,3-3s3,1.35,3,3 c0,1.65-1.35,3-3,3S9,11.65,9,10z M12.72,13.93C14.58,13.59,16,11.96,16,10c0-2.21-1.79-4-4-4c-2.21,0-4,1.79-4,4 c0,1.96,1.42,3.59,3.28,3.93c-4.42,0.25-6.84,2.8-7.28,6V4h16v15.93C19.56,16.73,17.14,14.18,12.72,13.93z"></path>
</symbol>
<symbol id="history" viewBox="0 0 24 24">
<path d="M14.97 16.95 10 13.87V7h2v5.76l4.03 2.49-1.06 1.7zM22 12c0 5.51-4.49 10-10 10S2 17.51 2 12h1c0 4.96 4.04 9 9 9s9-4.04 9-9-4.04-9-9-9C8.81 3 5.92 4.64 4.28 7.38c-.11.18-.22.37-.31.56L3.94 8H8v1H1.96V3h1v4.74c.04-.09.07-.17.11-.25.11-.22.23-.42.35-.63C5.22 3.86 8.51 2 12 2c5.51 0 10 4.49 10 10z"></path>
</symbol>
<symbol id="videos" viewBox="0 0 24 24">
<path d="m10 8 6 4-6 4V8zm11-5v18H3V3h18zm-1 1H4v16h16V4z"></path>
</symbol>
<symbol id="later" viewBox="0 0 24 24">
<path d="M14.97 16.95 10 13.87V7h2v5.76l4.03 2.49-1.06 1.7zM12 3c-4.96 0-9 4.04-9 9s4.04 9 9 9 9-4.04 9-9-4.04-9-9-9m0-1c5.52 0 10 4.48 10 10s-4.48 10-10 10S2 17.52 2 12 6.48 2 12 2z"></path>
</symbol>
<symbol id="downloads" viewBox="0 0 24 24">
<path d="M17 18v1H6v-1h11zm-.5-6.6-.7-.7-3.8 3.7V4h-1v10.4l-3.8-3.8-.7.7 5 5 5-4.9z"></path>
</symbol>
<symbol id="liked" viewBox="0 0 24 24">
<path d="M18.77,11h-4.23l1.52-4.94C16.38,5.03,15.54,4,14.38,4c-0.58,0-1.14,0.24-1.52,0.65L7,11H3v10h4h1h9.43 c1.06,0,1.98-0.67,2.19-1.61l1.34-6C21.23,12.15,20.18,11,18.77,11z M7,20H4v-8h3V20z M19.98,13.17l-1.34,6 C18.54,19.65,18.03,20,17.43,20H8v-8.61l5.6-6.06C13.79,5.12,14.08,5,14.38,5c0.26,0,0.5,0.11,0.63,0.3 c0.07,0.1,0.15,0.26,0.09,0.47l-1.52,4.94L13.18,12h1.35h4.23c0.41,0,0.8,0.17,1.03,0.46C19.92,12.61,20.05,12.86,19.98,13.17z"></path>
</symbol>
<symbol id="paylist" viewBox="0 0 24 24">
<path d="M22 7H2v1h20V7zm-9 5H2v-1h11v1zm0 4H2v-1h11v1zm2 3v-8l7 4-7 4z"></path>
</symbol>
<symbol id="you" viewBox="0 0 16 16">
<path d="M4.97 12.65 9.62 8 4.97 3.35l.71-.71L11.03 8l-5.35 5.35-.71-.7z"></path>
</symbol>
<symbol id="more" viewBox="0 0 24 24">
<path d="m18 9.28-6.35 6.35-6.37-6.35.72-.71 5.64 5.65 5.65-5.65z"></path>
</symbol>
<symbol id="trending" viewBox="0 0 24 24">
<path d="M19 3.87v9.77C19 17.7 15.86 21 12 21s-7-3.3-7-7.37v-.13c0-1.06.22-2.13.62-3.09.5-1.19 1.29-2.21 2.27-2.97.85-.66 1.83-1.14 2.87-1.65.39-.19.77-.38 1.15-.58.36-.19.72-.38 1.08-.56v3.22l1.55-1.04L19 3.87M20 2l-6 4V3c-.85.44-1.7.88-2.55 1.33-1.41.74-2.9 1.34-4.17 2.32-1.13.87-2.02 2.05-2.58 3.37-.46 1.09-.7 2.29-.7 3.48v.14C4 18.26 7.58 22 12 22s8-3.74 8-8.36V2zM9.45 12.89 14 10v5.7c0 1.82-1.34 3.3-3 3.3s-3-1.47-3-3.3c0-1.19.58-2.23 1.45-2.81z"></path>
</symbol>
<symbol id="music" viewBox="0 0 24 24">
<path d="M12 4v9.38c-.73-.84-1.8-1.38-3-1.38-2.21 0-4 1.79-4 4s1.79 4 4 4 4-1.79 4-4V8h6V4h-7zM9 19c-1.66 0-3-1.34-3-3s1.34-3 3-3 3 1.34 3 3-1.34 3-3 3zm9-12h-5V5h5v2z"></path>
</symbol>
<symbol id="movies" viewBox="0 0 24 24">
<path d="m22.01 4.91-.5-2.96L1.64 5.19 2 8v13h20V8H3.06l18.95-3.09zM5 9l1 3h3L8 9h2l1 3h3l-1-3h2l1 3h3l-1-3h3v11H3V9h2z"></path>
</symbol>
<symbol id="gaming" viewBox="0 0 24 24">
<path d="M10 12H8v2H6v-2H4v-2h2V8h2v2h2v2zm7 .5c0-.83-.67-1.5-1.5-1.5s-1.5.67-1.5 1.5.67 1.5 1.5 1.5 1.5-.67 1.5-1.5zm3-3c0-.83-.67-1.5-1.5-1.5S17 8.67 17 9.5s.67 1.5 1.5 1.5 1.5-.67 1.5-1.5zm-3.03-4.35-4.5 2.53-.49.27-.49-.27-4.5-2.53L3 7.39v6.43l8.98 5.04 8.98-5.04V7.39l-3.99-2.24m0-1.15 4.99 2.8v7.6L11.98 20 2 14.4V6.8L6.99 4l4.99 2.8L16.97 4z"></path>
</symbol>
<symbol id="news" viewBox="0 0 24 24">
<path d="M11 11v6H7v-6h4m1-1H6v8h6v-8zM3 3.03V21h14l4-4V3.03M20 4v11.99l-.01.01H16v3.99l-.01.01H4V4h16zm-2 4H6V6h12v2zm0 7h-5v-2h5v2zm0-3h-5v-2h5v2z"></path>
</symbol>
<symbol id="sports" viewBox="0 0 24 24">
<path d="M18 5V2H6v3H3v6l3.23 1.61c.7 2.5 2.97 4.34 5.69 4.38L8 19v3h8v-3l-3.92-2.01c2.72-.04 4.99-1.88 5.69-4.38L21 11V5h-3zM6 11.38l-2-1V6h2v5.38zM15 21H9v-1.39l3-1.54 3 1.54V21zm2-10c0 2.76-2.24 5-5 5s-5-2.24-5-5V3h10v8zm3-.62-2 1V6h2v4.38z"></path>
</symbol>
<symbol id="learning" viewBox="0 0 24 24">
<path d="M16 21h-2.28c-.35.6-.98 1-1.72 1s-1.38-.4-1.72-1H8v-1h8v1zm4-11c0 2.96-1.61 5.54-4 6.92V19H8v-2.08C5.61 15.54 4 12.96 4 10c0-4.42 3.58-8 8-8s8 3.58 8 8zm-5 8v-1.66l.5-.29C17.66 14.8 19 12.48 19 10c0-3.86-3.14-7-7-7s-7 3.14-7 7c0 2.48 1.34 4.8 3.5 6.06l.5.28V18h6z"></path>
</symbol>
<symbol id="you-studio" viewBox="0 0 24 24">
<path fill="red" d="M11.13 1.21c.48-.28 1.26-.28 1.74 0l8.01 4.64c.48.28.87.97.87 1.53v9.24c0 .56-.39 1.25-.87 1.53l-8.01 4.64c-.48.28-1.26.28-1.74 0l-8.01-4.64c-.48-.28-.87-.97-.87-1.53V7.38c0-.56.39-1.25.87-1.53l8.01-4.64z"></path>
<path fill="#fff" d="m12.71 18.98 4.9-2.83c.41-.24.64-.77.64-1.24V9.24c0-.47-.23-1-.64-1.24l-4.9-2.82c-.41-.23-1.02-.23-1.42 0L6.39 8c-.4.23-.64.77-.64 1.24v5.67c0 .47.24 1 .64 1.24l4.9 2.83c.2.12.46.18.71.18.26-.01.51-.07.71-.18z"></path>
<path fill="red" d="m12.32 5.73 4.89 2.83c.16.09.41.31.41.67v5.67c0 .37-.25.54-.41.64l-4.89 2.83c-.16.09-.48.09-.64 0l-4.89-2.83c-.16-.09-.41-.34-.41-.64V9.24c.02-.37.25-.58.41-.68l4.89-2.83c.08-.05.2-.07.32-.07s.24.02.32.07z"></path>
<path fill="#fff" d="M9.88 15.25 15.5 12 9.88 8.75z"></path>
</symbol>
<symbol id="you-music" viewBox="0 0 24 24">
<circle fill="#FF0000" cx="12" cy="12" r="10"></circle>
<polygon fill="#FFFFFF" points="10,14.65 10,9.35 15,12 "></polygon>
<path fill="#FFFFFF" d="M12,7c2.76,0,5,2.24,5,5s-2.24,5-5,5s-5-2.24-5-5S9.24,7,12,7 M12,6c-3.31,0-6,2.69-6,6s2.69,6,6,6s6-2.69,6-6 S15.31,6,12,6L12,6z"></path>
</symbol>
<symbol id="you-kids" viewBox="0 0 24 24">
<path fill="#FF0000" d="M21.39,13.19c0-0.08,0-0.15,0-0.22c-0.01-0.86-0.5-5-0.78-5.74c-0.32-0.85-0.76-1.5-1.31-1.91 c-0.9-0.67-1.66-0.82-2.6-0.84l-0.02,0c-0.4,0-3.01,0.32-5.2,0.62C9.28,5.4,6.53,5.8,5.88,6.04c-0.9,0.33-1.62,0.77-2.19,1.33 c-1.05,1.04-1.18,2.11-1.04,3.51c0.1,1.09,0.69,5.37,1.02,6.35c0.45,1.32,1.33,2.12,2.47,2.24c0.28,0.03,0.55,0.05,0.82,0.05 c1,0,1.8-0.21,2.72-0.46c1.45-0.39,3.25-0.87,6.97-0.87l0.09,0h0.02c0.91,0,3.14-0.2,4.16-2.07C21.44,15.12,21.41,13.91,21.39,13.19 z"></path>
<path fill="#000" d="M21.99,13.26c0-0.08,0-0.16-0.01-0.24c-0.01-0.92-0.54-5.32-0.83-6.11c-0.34-0.91-0.81-1.59-1.4-2.03 C18.81,4.17,17.99,4.02,17,4l-0.02,0c-0.43,0-3.21,0.34-5.54,0.66c-2.33,0.32-5.25,0.75-5.95,1C4.53,6.01,3.76,6.48,3.16,7.08 c-1.12,1.1-1.25,2.25-1.11,3.74c0.11,1.16,0.73,5.71,1.08,6.75c0.48,1.41,1.41,2.25,2.63,2.38C6.06,19.98,6.34,20,6.63,20 c1.07,0,1.91-0.23,2.89-0.49c1.54-0.41,3.46-0.93,7.41-0.93l0.1,0h0.02c0.97,0,3.34-0.21,4.42-2.2 C22.04,15.32,22.01,14.03,21.99,13.26z M20.59,15.91c-0.82,1.51-2.75,1.68-3.56,1.68l-0.1,0c-4.09,0-6.07,0.53-7.67,0.96 C8.31,18.8,7.56,19,6.63,19c-0.25,0-0.5-0.01-0.76-0.04c-1.04-0.11-1.54-0.99-1.79-1.71c-0.3-0.88-0.91-5.21-1.04-6.53 C2.9,9.25,3.1,8.54,3.86,7.79c0.5-0.5,1.15-0.89,1.97-1.19c0.17-0.06,1.1-0.32,5.74-0.95C14.2,5.29,16.64,5.01,16.99,5 c0.83,0.02,1.43,0.13,2.17,0.69c0.43,0.32,0.79,0.86,1.06,1.58c0.22,0.58,0.76,4.78,0.77,5.77l0.01,0.25 C21.01,13.96,21.04,15.08,20.59,15.91z"></path>
<path fill="#000" d="M11.59,14.76c-0.48,0.36-0.8,0.45-1.01,0.45c-0.16,0-0.25-0.05-0.3-0.08c-0.34-0.18-0.42-0.61-0.5-1.2l-0.01-0.1 c-0.04-0.31-0.26-2.1-0.38-3.16L9.3,9.94C9.26,9.66,9.2,9.19,9.54,8.94c0.32-0.23,0.75-0.09,0.96-0.03c0.53,0.17,3.6,1.23,4.59,1.73 c0.21,0.09,0.67,0.28,0.68,0.83c0.01,0.5-0.38,0.74-0.53,0.82L11.59,14.76z"></path>
<path fill="#FFF" d="M10.3,9.89c0,0,0.5,4.08,0.51,4.19c0.06-0.04,3.79-2.58,3.79-2.58C13.71,11.07,11.07,10.14,10.3,9.89z"></path>
</symbol>
<symbol id="settings" viewBox="0 0 24 24">
<path d="M12 9.5c1.38 0 2.5 1.12 2.5 2.5s-1.12 2.5-2.5 2.5-2.5-1.12-2.5-2.5 1.12-2.5 2.5-2.5m0-1c-1.93 0-3.5 1.57-3.5 3.5s1.57 3.5 3.5 3.5 3.5-1.57 3.5-3.5-1.57-3.5-3.5-3.5zM13.22 3l.55 2.2.13.51.5.18c.61.23 1.19.56 1.72.98l.4.32.5-.14 2.17-.62 1.22 2.11-1.63 1.59-.37.36.08.51c.05.32.08.64.08.98s-.03.66-.08.98l-.08.51.37.36 1.63 1.59-1.22 2.11-2.17-.62-.5-.14-.4.32c-.53.43-1.11.76-1.72.98l-.5.18-.13.51-.55 2.24h-2.44l-.55-2.2-.13-.51-.5-.18c-.6-.23-1.18-.56-1.72-.99l-.4-.32-.5.14-2.17.62-1.21-2.12 1.63-1.59.37-.36-.08-.51c-.05-.32-.08-.65-.08-.98s.03-.66.08-.98l.08-.51-.37-.36L3.6 8.56l1.22-2.11 2.17.62.5.14.4-.32c.53-.44 1.11-.77 1.72-.99l.5-.18.13-.51.54-2.21h2.44M14 2h-4l-.74 2.96c-.73.27-1.4.66-2 1.14l-2.92-.83-2 3.46 2.19 2.13c-.06.37-.09.75-.09 1.14s.03.77.09 1.14l-2.19 2.13 2 3.46 2.92-.83c.6.48 1.27.87 2 1.14L10 22h4l.74-2.96c.73-.27 1.4-.66 2-1.14l2.92.83 2-3.46-2.19-2.13c.06-.37.09-.75.09-1.14s-.03-.77-.09-1.14l2.19-2.13-2-3.46-2.92.83c-.6-.48-1.27-.87-2-1.14L14 2z"></path>
</symbol>
<symbol id="rep-history" viewBox="0 0 24 24">
<path d="m13.18 4 .24 1.2.16.8H19v7h-5.18l-.24-1.2-.16-.8H6V4h7.18M14 3H5v18h1v-9h6.6l.4 2h7V5h-5.6L14 3z"></path>
</symbol>
<symbol id="help" viewBox="0 0 24 24">
<path d="M15.36 9.96c0 1.09-.67 1.67-1.31 2.24-.53.47-1.03.9-1.16 1.6l-.04.2H11.1l.03-.28c.14-1.17.8-1.76 1.47-2.27.52-.4 1.01-.77 1.01-1.49 0-.51-.23-.97-.63-1.29-.4-.31-.92-.42-1.42-.29-.59.15-1.05.67-1.19 1.34l-.05.28H8.57l.06-.42c.2-1.4 1.15-2.53 2.42-2.87 1.05-.29 2.14-.08 2.98.57.85.64 1.33 1.62 1.33 2.68zM12 18c.55 0 1-.45 1-1s-.45-1-1-1-1 .45-1 1 .45 1 1 1zm0-15c-4.96 0-9 4.04-9 9s4.04 9 9 9 9-4.04 9-9-4.04-9-9-9m0-1c5.52 0 10 4.48 10 10s-4.48 10-10 10S2 17.52 2 12 6.48 2 12 2z"></path>
</symbol>
<symbol id="feedback" viewBox="0 0 24 24">
<path d="M13 14h-2v-2h2v2zm0-9h-2v6h2V5zm6-2H5v16.59l3.29-3.29.3-.3H19V3m1-1v15H9l-5 5V2h16z"></path>
</symbol>
<symbol id="search" viewBox="0 0 24 24">
<path d="m20.87 20.17-5.59-5.59C16.35 13.35 17 11.75 17 10c0-3.87-3.13-7-7-7s-7 3.13-7 7 3.13 7 7 7c1.75 0 3.35-.65 4.58-1.71l5.59 5.59.7-.71zM10 16c-3.31 0-6-2.69-6-6s2.69-6 6-6 6 2.69 6 6-2.69 6-6 6z"></path>
</symbol>
<symbol id="micro" viewBox="0 0 24 24">
<path d="M0 0h24v24H0z" fill="none"/>
<path d="M12 14c1.66 0 2.99-1.34 2.99-3L15 5c0-1.66-1.34-3-3-3S9 3.34 9 5v6c0 1.66 1.34 3 3 3zm5.3-3c0 3-2.54 5.1-5.3 5.1S6.7 14 6.7 11H5c0 3.41 2.72 6.23 6 6.72V21h2v-3.28c3.28-.48 6-3.3 6-6.72h-1.7z"/>
</symbol>
<symbol id="add-video" viewBox="0 0 24 24">
<path d="M14 13h-3v3H9v-3H6v-2h3V8h2v3h3v2zm3-7H3v12h14v-6.39l4 1.83V8.56l-4 1.83V6m1-1v3.83L22 7v8l-4-1.83V19H2V5h16z"></path>
</symbol>
<symbol id="bell" viewBox="0 0 24 24">
<path d="M10 20h4c0 1.1-.9 2-2 2s-2-.9-2-2zm10-2.65V19H4v-1.65l2-1.88v-5.15C6 7.4 7.56 5.1 10 4.34v-.38c0-1.42 1.49-2.5 2.99-1.76.65.32 1.01 1.03 1.01 1.76v.39c2.44.75 4 3.06 4 5.98v5.15l2 1.87zm-1 .42-2-1.88v-5.47c0-2.47-1.19-4.36-3.13-5.1-1.26-.53-2.64-.5-3.84.03C8.15 6.11 7 7.99 7 10.42v5.47l-2 1.88V18h14v-.23z"></path>
</symbol>
<symbol id="verificated" viewBox="0 0 24 24">
<path d="M12 2C6.5 2 2 6.5 2 12s4.5 10 10 10 10-4.5 10-10S17.5 2 12 2zM9.8 17.3l-4.2-4.1L7 11.8l2.8 2.7L17 7.4l1.4 1.4-8.6 8.5z"></path>
</symbol>
<symbol id="insta-figma" width="30" height="30" viewBox="0 0 30 30">
<path d="M21.7209 0H8.27874C3.71384 0 0 3.71402 0 8.27892V21.7211C0 26.2862 3.71384 30 8.27874 30H21.7209C26.2862 30 30 26.286 30 21.7211V8.27892C30.0002 3.71402 26.2862 0 21.7209 0ZM27.3384 21.7211C27.3384 24.8185 24.8185 27.3383 21.7211 27.3383H8.27874C5.18153 27.3384 2.66175 24.8185 2.66175 21.7211V8.27892C2.66175 5.18171 5.18153 2.66175 8.27874 2.66175H21.7209C24.8183 2.66175 27.3383 5.18171 27.3383 8.27892V21.7211H27.3384Z" fill="#21243D"/>
<path d="M15 7.27014C10.7375 7.27014 7.26978 10.7379 7.26978 15.0004C7.26978 19.2627 10.7375 22.7303 15 22.7303C19.2625 22.7303 22.7303 19.2627 22.7303 15.0004C22.7303 10.7379 19.2625 7.27014 15 7.27014ZM15 20.0683C12.2054 20.0683 9.93152 17.7949 9.93152 15.0002C9.93152 12.2054 12.2052 9.93171 15 9.93171C17.7948 9.93171 20.0685 12.2054 20.0685 15.0002C20.0685 17.7949 17.7947 20.0683 15 20.0683Z" fill="#21243D"/>
<path d="M23.0545 5.01318C22.5417 5.01318 22.0379 5.2208 21.6757 5.58457C21.3118 5.94657 21.1025 6.45053 21.1025 6.96513C21.1025 7.47814 21.3119 7.98192 21.6757 8.34569C22.0377 8.70769 22.5417 8.91708 23.0545 8.91708C23.5691 8.91708 24.0713 8.70769 24.435 8.34569C24.7988 7.98192 25.0064 7.47796 25.0064 6.96513C25.0064 6.45053 24.7988 5.94657 24.435 5.58457C24.073 5.2208 23.5691 5.01318 23.0545 5.01318Z" fill="#21243D"/>
</symbol>
<symbol id="facebook-figma" width="30" height="30" viewBox="0 0 30 30">
<path d="M25.6055 0H4.39453C1.97159 0 0 1.97159 0 4.39453V25.6055C0 28.0284 1.97159 30 4.39453 30H13.2422V19.3945H9.72656V14.1211H13.2422V10.5469C13.2422 7.63893 15.6077 5.27344 18.5156 5.27344H23.8477V10.5469H18.5156V14.1211H23.8477L22.9688 19.3945H18.5156V30H25.6055C28.0284 30 30 28.0284 30 25.6055V4.39453C30 1.97159 28.0284 0 25.6055 0Z" fill="#21243D"/>
</symbol>
<symbol id="twitter-figma" width="40" height="30" viewBox="0 0 30 30">
<path d="M36.9231 3.55154C35.55 4.15385 34.0869 4.55308 32.5615 4.74692C34.1308 3.81 35.3285 2.33769 35.8915 0.563077C34.4285 1.43538 32.8131 2.05154 31.0915 2.39538C29.7023 0.916154 27.7223 0 25.5623 0C21.3715 0 17.9977 3.40154 17.9977 7.57154C17.9977 8.17154 18.0485 8.74846 18.1731 9.29769C11.88 8.99077 6.31154 5.97462 2.57077 1.38C1.91769 2.51308 1.53462 3.81 1.53462 5.20615C1.53462 7.82769 2.88462 10.1515 4.89692 11.4969C3.68077 11.4738 2.48769 11.1208 1.47692 10.5646C1.47692 10.5877 1.47692 10.6177 1.47692 10.6477C1.47692 14.3262 4.10077 17.3815 7.54154 18.0854C6.92538 18.2538 6.25385 18.3346 5.55692 18.3346C5.07231 18.3346 4.58308 18.3069 4.12385 18.2054C5.10462 21.2031 7.88769 23.4069 11.1969 23.4785C8.62154 25.4931 5.35154 26.7069 1.81154 26.7069C1.19077 26.7069 0.595385 26.6792 0 26.6031C3.35308 28.7654 7.32692 30 11.6123 30C25.5415 30 33.1569 18.4615 33.1569 8.46C33.1569 8.12538 33.1454 7.80231 33.1292 7.48154C34.6315 6.41538 35.8938 5.08385 36.9231 3.55154Z" fill="#21243D"/>
</symbol>
<symbol id="linkedin-figma" width="30" height="30" viewBox="0 0 30 30">
<path d="M25.6055 0H4.39453C1.97159 0 0 1.97159 0 4.39453V25.6055C0 28.0284 1.97159 30 4.39453 30H25.6055C28.0284 30 30 28.0284 30 25.6055V4.39453C30 1.97159 28.0284 0 25.6055 0ZM10.6055 23.7891H7.08984V11.4844H10.6055V23.7891ZM10.6055 9.72656H7.08984V6.21094H10.6055V9.72656ZM22.9102 23.7891H19.3945V16.7578C19.3945 15.7887 18.6058 15 17.6367 15C16.6676 15 15.8789 15.7887 15.8789 16.7578V23.7891H12.3633V11.4844H15.8789V12.147C16.7999 11.8607 17.3982 11.4844 18.5156 11.4844C20.8999 11.4869 22.9102 13.6258 22.9102 16.1536V23.7891Z" fill="#21243D"/>
</symbol>
<symbol id="burger-menu" viewBox="0 0 30 20">
<path d="M0 1H30" stroke="#21243D" stroke-width="1.6"/>
<path d="M0 10H30" stroke="#21243D" stroke-width="1.6"/>
<path d="M0 19H30" stroke="#21243D" stroke-width="1.6"/>
</symbol>
<symbol id="cross-menu" viewBox="0 0 15 15">
<path d="M2.14645 2.85355C1.95118 2.65829 1.95118 2.34171 2.14645 2.14645C2.34171 1.95118 2.65829 1.95118 2.85355 2.14645L8 7.29289L13.1464 2.14645C13.3417 1.95118 13.6583 1.95118 13.8536 2.14645C14.0488 2.34171 14.0488 2.65829 13.8536 2.85355L8.70711 8L13.8536 13.1464C14.0488 13.3417 14.0488 13.6583 13.8536 13.8536C13.6583 14.0488 13.3417 14.0488 13.1464 13.8536L8 8.70711L2.85355 13.8536C2.65829 14.0488 2.34171 14.0488 2.14645 13.8536C1.95119 13.6583 1.95119 13.3417 2.14645 13.1464L7.29289 8L2.14645 2.85355Z" fill="#21243D"/>
</symbol>
<symbol id="pinterest" viewBox="0 0 500 500">
<path d="M405.017,52.467C369.774,18.634,321.001,0,267.684,0C186.24,0,136.148,33.385,108.468,61.39
	c-34.114,34.513-53.675,80.34-53.675,125.732c0,56.993,23.839,100.737,63.76,117.011c2.68,1.098,5.377,1.651,8.021,1.651
	c8.422,0,15.095-5.511,17.407-14.35c1.348-5.071,4.47-17.582,5.828-23.013c2.906-10.725,0.558-15.884-5.78-23.353
	c-11.546-13.662-16.923-29.817-16.923-50.842c0-62.451,46.502-128.823,132.689-128.823c68.386,0,110.866,38.868,110.866,101.434
	c0,39.482-8.504,76.046-23.951,102.961c-10.734,18.702-29.609,40.995-58.585,40.995c-12.53,0-23.786-5.147-30.888-14.121
	c-6.709-8.483-8.921-19.441-6.222-30.862c3.048-12.904,7.205-26.364,11.228-39.376c7.337-23.766,14.273-46.213,14.273-64.122
	c0-30.632-18.832-51.215-46.857-51.215c-35.616,0-63.519,36.174-63.519,82.354c0,22.648,6.019,39.588,8.744,46.092
	c-4.487,19.01-31.153,132.03-36.211,153.342c-2.925,12.441-20.543,110.705,8.618,118.54c32.764,8.803,62.051-86.899,65.032-97.713
	c2.416-8.795,10.869-42.052,16.049-62.495c15.817,15.235,41.284,25.535,66.064,25.535c46.715,0,88.727-21.022,118.298-59.189
	c28.679-37.02,44.474-88.618,44.474-145.282C457.206,127.983,438.182,84.311,405.017,52.467z"/>
</symbol>
<symbol id="twitter" viewBox="0 0 500 500">
<path d="M500.398,94.784c-8.043,3.567-16.313,6.578-24.763,9.023c10.004-11.314,17.631-24.626,22.287-39.193
	c1.044-3.265-0.038-6.839-2.722-8.975c-2.681-2.137-6.405-2.393-9.356-0.644c-17.945,10.643-37.305,18.292-57.605,22.764
	c-20.449-19.981-48.222-31.353-76.934-31.353c-60.606,0-109.913,49.306-109.913,109.91c0,4.773,0.302,9.52,0.9,14.201
	c-75.206-6.603-145.124-43.568-193.136-102.463c-1.711-2.099-4.347-3.231-7.046-3.014c-2.7,0.211-5.127,1.734-6.491,4.075
	c-9.738,16.709-14.886,35.82-14.886,55.265c0,26.484,9.455,51.611,26.158,71.246c-5.079-1.759-10.007-3.957-14.711-6.568
	c-2.525-1.406-5.607-1.384-8.116,0.054c-2.51,1.439-4.084,4.084-4.151,6.976c-0.012,0.487-0.012,0.974-0.012,1.468
	c0,39.531,21.276,75.122,53.805,94.52c-2.795-0.279-5.587-0.684-8.362-1.214c-2.861-0.547-5.802,0.456-7.731,2.638
	c-1.932,2.18-2.572,5.219-1.681,7.994c12.04,37.591,43.039,65.24,80.514,73.67c-31.082,19.468-66.626,29.665-103.939,29.665
	c-7.786,0-15.616-0.457-23.279-1.364c-3.807-0.453-7.447,1.795-8.744,5.416c-1.297,3.622,0.078,7.66,3.316,9.736
	c47.935,30.735,103.361,46.98,160.284,46.98c111.903,0,181.907-52.769,220.926-97.037c48.657-55.199,76.562-128.261,76.562-200.451
	c0-3.016-0.046-6.061-0.139-9.097c19.197-14.463,35.724-31.967,49.173-52.085c2.043-3.055,1.822-7.094-0.545-9.906
	C507.7,94.204,503.76,93.294,500.398,94.784z"/>
</symbol>
<symbol id="" viewBox="0 0 24 24">

</symbol>
<symbol id="" viewBox="0 0 24 24">

</symbol>
</defs>
</svg>
